<?xml version="1.0" encoding="UTF-8"?>
<!--Generator: Apple Native CoreSVG 341-->
<!DOCTYPE svg
PUBLIC "-//W3C//DTD SVG 1.1//EN"
       "http://www.w3.org/Graphics/SVG/1.1/DTD/svg11.dtd">
<svg version="1.1" xmlns="http://www.w3.org/2000/svg" xmlns:xlink="http://www.w3.org/1999/xlink" viewBox="0 0 256.875 245.125">
 <g>
  <path d="M220.375 245.125C240.5 245.125 256.75 228.875 256.75 208.75C256.75 188.625 240.5 172.375 220.375 172.375C200.25 172.375 184 188.625 184 208.75C184 228.875 200.25 245.125 220.375 245.125Z" fill="white" fill-opacity="0.85"/>
  <path d="M128.375 245.125C148.5 245.125 164.75 228.875 164.75 208.75C164.75 188.625 148.5 172.375 128.375 172.375C108.25 172.375 92 188.625 92 208.75C92 228.875 108.25 245.125 128.375 245.125Z" fill="white" fill-opacity="0.85"/>
  <path d="M36.375 245.125C56.5 245.125 72.875 228.875 72.875 208.75C72.875 188.625 56.5 172.375 36.375 172.375C16.25 172.375 0 188.625 0 208.75C0 228.875 16.25 245.125 36.375 245.125Z" fill="white" fill-opacity="0.85"/>
  <path d="M220.375 159C240.5 159 256.75 142.75 256.75 122.625C256.75 102.5 240.5 86.25 220.375 86.25C200.25 86.25 184 102.5 184 122.625C184 142.75 200.25 159 220.375 159Z" fill="white" fill-opacity="0.85"/>
  <path d="M128.375 159C148.5 159 164.75 142.75 164.75 122.625C164.75 102.5 148.5 86.25 128.375 86.25C108.25 86.25 92 102.5 92 122.625C92 142.75 108.25 159 128.375 159Z" fill="white" fill-opacity="0.85"/>
  <path d="M36.375 159C56.5 159 72.875 142.75 72.875 122.625C72.875 102.5 56.5 86.25 36.375 86.25C16.25 86.25 0 102.5 0 122.625C0 142.75 16.25 159 36.375 159Z" fill="white" fill-opacity="0.85"/>
  <path d="M220.5 72.875C240.625 72.875 256.875 56.5 256.875 36.5C256.875 16.375 240.625 0 220.5 0C200.375 0 184.125 16.375 184.125 36.5C184.125 56.5 200.375 72.875 220.5 72.875Z" fill="white" fill-opacity="0.85"/>
  <path d="M128.5 72.875C148.625 72.875 164.875 56.5 164.875 36.5C164.875 16.375 148.625 0 128.5 0C108.375 0 92.125 16.375 92.125 36.5C92.125 56.5 108.375 72.875 128.5 72.875Z" fill="white" fill-opacity="0.85"/>
  <path d="M36.5 72.875C56.625 72.875 73 56.5 73 36.5C73 16.375 56.625 0 36.5 0C16.375 0 0.125 16.375 0.125 36.5C0.125 56.5 16.375 72.875 36.5 72.875Z" fill="white" fill-opacity="0.85"/>
 </g>
</svg>
