<?xml version="1.0" encoding="UTF-8"?>
<!--Generator: Apple Native CoreSVG 341-->
<!DOCTYPE svg
PUBLIC "-//W3C//DTD SVG 1.1//EN"
       "http://www.w3.org/Graphics/SVG/1.1/DTD/svg11.dtd">
<svg version="1.1" xmlns="http://www.w3.org/2000/svg" xmlns:xlink="http://www.w3.org/1999/xlink" viewBox="0 0 221.875 313.625">
 <g>
  <path d="M221.875 142.25L221.875 238.5C221.875 272 203.125 290.75 169.5 290.75L52.25 290.75C18.625 290.75 0 272 0 238.5L0 142.25C0 108.625 18.625 90 52.25 90L77.5 90L77.5 110.125L52.25 110.125C31.75 110.125 20.125 121.75 20.125 142.25L20.125 238.5C20.125 259 31.75 270.625 52.25 270.625L169.5 270.625C190.125 270.625 201.75 259 201.75 238.5L201.75 142.25C201.75 121.75 190.125 110.125 169.5 110.125L144.375 110.125L144.375 90L169.5 90C203.125 90 221.875 108.625 221.875 142.25Z" fill="white" fill-opacity="0.85"/>
  <path d="M111 23.5C105.625 23.5 101 27.875 101 33.125L101 160.25L102.5 194C102.75 198.625 106.375 202.375 111 202.375C115.5 202.375 119.125 198.625 119.375 194L120.875 160.25L120.875 33.125C120.875 27.875 116.375 23.5 111 23.5ZM68.5 148C63.25 148 59.5 151.625 59.5 156.75C59.5 159.5 60.625 161.5 62.5 163.375L103.75 203.125C106.25 205.625 108.375 206.375 111 206.375C113.5 206.375 115.625 205.625 118.125 203.125L159.375 163.375C161.25 161.5 162.375 159.5 162.375 156.75C162.375 151.625 158.375 148 153.25 148C150.75 148 148.25 149 146.5 151L127.125 171.625L111 188.75L94.75 171.625L75.375 151C73.625 149 71 148 68.5 148Z" fill="white" fill-opacity="0.85"/>
 </g>
</svg>
